HIERARCHY
ROOT Hips
{
    OFFSET 0.000000 0.000000 0.000000
    CHANNELS 6 Xposition Yposition Zposition Zrotation Xrotation Yrotation
    JOINT Spine
    {
        OFFSET -0.000000 7.246840 0.000000
        CHANNELS 3 Zrotation Xrotation Yrotation
        JOINT Spine1
        {
            OFFSET -0.000000 20.289354 0.000000
            CHANNELS 3 Zrotation Xrotation Yrotation
            JOINT Neck
            {
                OFFSET -0.000000 20.206032 1.836912
                CHANNELS 3 Zrotation Xrotation Yrotation
                JOINT Head
                {
                    OFFSET -0.000000 12.372654 -1.767522
                    CHANNELS 3 Zrotation Xrotation Yrotation
                    End Site
                    {
                        OFFSET -0.000000 22.094025 0.000000
                    }
                }
            }
            JOINT LeftShoulder
            {
                OFFSET 3.465871 17.201674 -0.568930
                CHANNELS 3 Zrotation Xrotation Yrotation
                JOINT LeftArm
                {
                    OFFSET 14.070313 0.000000 0.000000
                    CHANNELS 3 Zrotation Xrotation Yrotation
                    JOINT LeftForeArm
                    {
                        OFFSET 26.549477 0.000000 0.000000
                        CHANNELS 3 Zrotation Xrotation Yrotation
                        JOINT LeftHand
                        {
                            OFFSET 18.880413 0.000000 0.000000
                            CHANNELS 3 Zrotation Xrotation Yrotation
                            End Site
                            {
                                OFFSET 13.256415 0.000000 0.000000
                            }
                        }
                    }
                }
            }
            JOINT RightShoulder
            {
                OFFSET -3.526370 17.201674 -0.568930
                CHANNELS 3 Zrotation Xrotation Yrotation
                JOINT RightArm
                {
                    OFFSET -14.070313 0.000000 0.000000
                    CHANNELS 3 Zrotation Xrotation Yrotation
                    JOINT RightForeArm
                    {
                        OFFSET -26.549477 0.000000 0.000000
                        CHANNELS 3 Zrotation Xrotation Yrotation
                        JOINT RightHand
                        {
                            OFFSET -18.880413 0.000000 0.000000
                            CHANNELS 3 Zrotation Xrotation Yrotation
                            End Site
                            {
                                OFFSET -13.256415 0.000000 0.000000
                            }
                        }
                    }
                }
            }
        }
    }
    JOINT LeftUpLeg
    {
        OFFSET 8.837609 0.000000 0.000000
        CHANNELS 3 Zrotation Xrotation Yrotation
        JOINT LeftLeg
        {
            OFFSET -0.000000 -41.345005 0.000000
            CHANNELS 3 Zrotation Xrotation Yrotation
            JOINT LeftFoot
            {
                OFFSET -0.000000 -35.500874 0.000000
                CHANNELS 3 Zrotation Xrotation Yrotation
                JOINT LeftToeBase
                {
                    OFFSET -0.000000 -5.744446 13.256415
                    CHANNELS 3 Zrotation Xrotation Yrotation
                    End Site
                    {
                        OFFSET -0.000000 0.000000 3.535044
                    }
                }
            }
        }
    }
    JOINT RightUpLeg
    {
        OFFSET -8.837609 0.000000 0.000000
        CHANNELS 3 Zrotation Xrotation Yrotation
        JOINT RightLeg
        {
            OFFSET -0.000000 -41.345005 0.000000
            CHANNELS 3 Zrotation Xrotation Yrotation
            JOINT RightFoot
            {
                OFFSET -0.000000 -35.500874 0.000000
                CHANNELS 3 Zrotation Xrotation Yrotation
                JOINT RightToeBase
                {
                    OFFSET -0.000000 -5.744446 13.256415
                    CHANNELS 3 Zrotation Xrotation Yrotation
                    End Site
                    {
                        OFFSET -0.000000 0.000000 3.535044
                    }
                }
            }
        }
    }
}
MOTION
Frames:    11
Frame Time:    0.010000
3.672986    82.298538    -49.642952    3.541032    3.408995    -0.648513    -8.177814    -12.748047    -4.763346    7.635216    -1.679417    -3.736269    -7.278954    33.229687    3.102955    4.868705    -19.496918    3.490717    19.659834    -9.185206    5.932023    -33.386379    -10.755569    -52.448971    1.912838    -35.877132    -70.006462    1.834520    -34.948444    -12.461700    -10.560105    4.941139    13.538387    81.718559    58.282730    0.056836    -5.073115    -18.266884    32.135998    40.464943    -9.922336    19.192404    -2.981281    6.132216    0.070536    -2.030838    -9.376247    -5.474738    5.126606    1.239753    -1.287015    -1.164194    -1.125916    1.640869    -8.483548    5.148828    1.997377    8.516976    -9.890784    2.673822    -0.163831    -1.007078    -6.589920    -0.406821    -2.550220    0.750460    
3.665159    82.297356    -49.637669    3.546546    3.404533    -0.690937    -8.159936    -12.777157    -4.734569    7.598290    -1.637022    -3.710781    -7.259626    33.210842    3.081654    4.860826    -19.389927    3.466518    19.601324    -9.228420    5.887326    -33.384209    -10.624259    -52.251583    1.808163    -35.921883    -70.569527    1.637166    -35.025627    -12.500257    -10.561580    4.940547    13.534046    81.733917    58.288330    0.062462    -5.067756    -18.272881    32.132206    40.417278    -9.941253    19.187244    -2.979939    6.132814    0.090124    -2.034499    -9.350296    -5.483392    4.225169    0.833606    -1.470027    -1.580225    -0.424775    2.217722    -8.488679    5.150150    2.023720    8.523016    -9.896154    2.691004    -0.177440    -1.019896    -6.612478    -0.425426    -2.545074    0.784732    
3.659688    82.295990    -49.633183    3.554482    3.397887    -0.728815    -8.125784    -12.804691    -4.703878    7.525272    -1.596703    -3.685641    -7.229846    33.186867    3.066552    4.869535    -19.258430    3.455005    19.576910    -9.213334    5.883580    -33.430344    -10.483559    -52.108047    1.744889    -35.995438    -71.121521    1.381092    -35.103783    -12.545181    -10.536796    4.938748    13.536169    81.750931    58.274380    0.051663    -5.064111    -18.277178    32.128510    40.412445    -9.943228    19.199577    -2.983826    6.135702    0.065176    -2.034924    -9.333701    -5.454669    5.121133    1.217944    -1.224954    -1.174408    -1.152780    1.655536    -8.493803    5.154462    2.027069    8.523546    -9.905134    2.652706    -0.149907    -1.027189    -6.538141    -0.414684    -2.503235    0.764554    
3.651912    82.294479    -49.629116    3.558033    3.394217    -0.762419    -8.100793    -12.832432    -4.675681    7.478142    -1.560411    -3.661292    -7.233081    33.191029    3.046242    4.905449    -19.154499    3.439756    19.537348    -9.196054    5.889962    -33.470745    -10.324358    -51.975899    1.761848    -36.088001    -71.588837    0.989600    -35.144341    -12.673404    -10.537624    4.938535    13.531437    81.773865    58.244946    0.050660    -5.047967    -18.277824    32.129616    40.396488    -9.949745    19.204195    -2.979308    6.132921    0.091236    -2.050821    -9.304375    -5.460824    5.111199    1.181022    -1.211009    -1.172444    -1.123887    1.652475    -8.493756    5.156112    2.022820    8.528159    -9.913095    2.640869    -0.156961    -1.002296    -6.480425    -0.418514    -2.525670    0.771813    
3.644297    82.293045    -49.624435    3.564177    3.389915    -0.795555    -8.067345    -12.863069    -4.637925    7.403065    -1.525118    -3.628449    -7.044230    33.251038    2.998188    4.683811    -19.116503    3.348258    19.501989    -9.161712    5.888593    -33.535427    -10.186436    -51.866539    1.721879    -36.173229    -72.096199    0.544704    -35.204948    -12.849217    -10.505877    4.948907    13.516973    81.790535    58.248745    0.036096    -5.063328    -18.288439    32.135094    40.397472    -9.955857    19.204384    -2.975087    6.132754    0.071811    -2.059990    -9.286513    -5.447697    5.114532    1.179583    -1.182480    -1.181020    -1.147645    1.664804    -8.499294    5.160256    2.021681    8.537776    -9.914359    2.689727    -0.146039    -1.010059    -6.482325    -0.393698    -2.525378    0.726047    
3.637826    82.292343    -49.620564    3.569566    3.391190    -0.828040    -8.044397    -12.899911    -4.609780    7.355604    -1.486049    -3.603417    -7.048541    33.229103    2.980681    4.717542    -18.953976    3.334814    19.447731    -9.098125    5.914069    -33.605122    -10.056324    -51.776318    1.789047    -36.276268    -72.494377    -0.126933    -35.199558    -13.088869    -10.505905    4.957440    13.515215    81.793076    58.229839    0.046130    -5.052156    -18.286411    32.150131    40.382549    -9.965719    19.186544    -2.975190    6.125317    0.065694    -2.063709    -9.260054    -5.413311    5.194099    1.193795    -1.163362    -1.160160    -1.199325    1.635918    -8.505574    5.155932    2.040094    8.542967    -9.919892    2.685791    -0.155638    -1.013943    -6.483653    -0.417692    -2.511191    0.770169    
3.631864    82.291367    -49.616467    3.576556    3.390332    -0.854689    -8.008220    -12.933770    -4.573134    7.282866    -1.456411    -3.571331    -7.014279    33.221355    2.965179    4.712101    -18.780571    3.316590    19.626062    -9.499904    5.990393    -33.893845    -9.462759    -51.405621    1.867725    -36.324390    -72.925140    -0.772011    -35.130489    -13.322501    -10.488349    4.965651    13.498013    81.815025    58.192280    0.040107    -5.039851    -18.286318    32.146343    40.392563    -9.958513    19.210278    -2.976009    6.119129    0.068090    -2.040302    -9.248678    -5.532221    5.104653    1.170532    -1.031936    -1.185540    -1.138171    1.671078    -8.510878    5.157212    2.044013    8.543417    -9.929511    2.672795    -0.135173    -1.014222    -6.449125    -0.428672    -2.477146    0.790108    
3.624315    82.289993    -49.613487    3.577659    3.392324    -0.880140    -7.970690    -12.966527    -4.542681    7.216220    -1.432703    -3.545186    -6.971231    33.227661    2.942113    4.679858    -18.611891    3.283107    19.558382    -9.454172    5.995508    -33.887741    -9.319253    -51.266472    1.805989    -36.490822    -73.384102    -1.374024    -35.268265    -13.518508    -10.481539    4.977917    13.501726    81.838669    58.184399    0.032102    -5.023057    -18.310688    32.159615    40.370319    -9.994708    19.203491    -2.967588    6.106827    0.070064    -2.061863    -9.211185    -5.481075    5.123301    1.149035    -1.066803    -1.202685    -1.170003    1.695573    -8.512765    5.152717    2.069484    8.553946    -9.934124    2.668193    -0.134816    -1.014386    -6.440717    -0.426854    -2.483529    0.786816    
3.616398    82.288834    -49.611237    3.582292    3.397171    -0.903115    -7.942427    -12.995650    -4.509215    7.160161    -1.411120    -3.514938    -6.972551    33.183346    2.932481    4.712991    -18.370430    3.276549    19.489464    -9.415998    6.009726    -33.874878    -9.200339    -51.140965    1.740364    -36.488262    -73.814491    -1.763504    -35.258663    -13.586572    -10.482740    4.979994    13.479396    81.864510    58.179565    0.041716    -5.002241    -18.321344    32.142395    40.340420    -10.016332    19.208349    -2.968391    6.100666    0.069952    -2.066633    -9.199976    -5.436000    5.101540    1.130249    -1.094594    -1.210988    -1.142916    1.706994    -8.513335    5.149917    2.079888    8.548460    -9.948152    2.660366    -0.149861    -1.007869    -6.436369    -0.441158    -2.476273    0.813115    
3.610653    82.287598    -49.608315    3.585772    3.398544    -0.923661    -7.896562    -13.023622    -4.472527    7.070066    -1.390346    -3.483960    -6.924452    33.131603    2.914268    4.697008    -18.096697    3.254059    19.459274    -9.317735    6.002674    -33.917469    -9.134526    -50.990379    1.385923    -36.600994    -74.465439    -2.157707    -35.538383    -13.795360    -10.459117    4.989799    13.463389    81.885696    58.138802    0.034888    -4.970980    -18.318281    32.154202    40.330284    -10.021935    19.212378    -2.968723    6.093340    0.093817    -2.060953    -9.184944    -5.483033    5.121801    1.134272    -1.051367    -1.187219    -1.166456    1.673733    -8.514724    5.147985    2.083349    8.554961    -9.950431    2.671736    -0.127825    -1.009894    -6.412582    -0.436328    -2.471905    0.804173    
3.601914    82.286247    -49.607162    3.586133    3.402605    -0.933660    -7.857833    -13.044905    -4.441557    6.993971    -1.378528    -3.457591    -6.865932    33.091228    2.891405    4.645965    -17.835642    3.217811    19.406631    -9.230751    6.097989    -33.966488    -9.032344    -50.957882    1.176993    -36.555405    -74.935516    -2.430349    -35.586761    -13.886680    -10.443544    5.003221    13.447395    81.906769    58.129993    0.033844    -4.962023    -18.324963    32.157738    40.326672    -10.031382    19.213839    -2.955294    6.087575    0.063724    -2.060450    -9.178527    -5.507918    5.115886    1.140283    -0.987645    -1.201539    -1.161651    1.693870    -8.510244    5.146329    2.093059    8.555893    -9.960436    2.636682    -0.103722    -1.020519    -6.385773    -0.432581    -2.468227    0.797233    
